<svg version="1.1"
	 xmlns="http://www.w3.org/2000/svg" xmlns:xlink="http://www.w3.org/1999/xlink" xmlns:a="http://ns.adobe.com/AdobeSVGViewerExtensions/3.0/"
	 x="0px" y="0px" width="30.1px" height="30.1px" viewBox="0 0 30.1 30.1" style="enable-background:new 0 0 30.1 30.1;"
	 xml:space="preserve">
<style type="text/css">
	.st0{fill:#333333;}
	.st1{fill:none;}
</style>
<defs>
</defs>
<path class="st0" d="M26.1,8.2c-0.8,0.4-1.7,0.6-2.6,0.7c0.9-0.6,1.7-1.4,2-2.5c-0.9,0.5-1.8,0.9-2.9,1.1c-0.8-0.9-2-1.4-3.3-1.4
	c-2.5,0-4.5,2-4.5,4.5c0,0.4,0,0.7,0.1,1c-3.8-0.2-7.1-2-9.3-4.7C5.2,7.6,5,8.4,5,9.2c0,1.6,0.8,3,2,3.8c-0.7,0-1.4-0.2-2-0.6
	c0,0,0,0,0,0.1c0,2.2,1.6,4,3.6,4.4c-0.4,0.1-0.8,0.2-1.2,0.2c-0.3,0-0.6,0-0.9-0.1c0.6,1.8,2.2,3.1,4.2,3.1
	c-1.5,1.2-3.5,1.9-5.6,1.9c-0.4,0-0.7,0-1.1-0.1c2,1.3,4.4,2,6.9,2c8.3,0,12.9-6.9,12.9-12.9c0-0.2,0-0.4,0-0.6
	C24.7,9.9,25.5,9.1,26.1,8.2"/>
<rect class="st1" width="30.1" height="30.1"/>
</svg>