<svg version="1.1"
	 xmlns="http://www.w3.org/2000/svg" xmlns:xlink="http://www.w3.org/1999/xlink" xmlns:a="http://ns.adobe.com/AdobeSVGViewerExtensions/3.0/"
	 x="0px" y="0px" width="30.1px" height="30.1px" viewBox="0 0 30.1 30.1" style="enable-background:new 0 0 30.1 30.1;"
	 xml:space="preserve">
<style type="text/css">
	.st0{fill:#333333;}
	.st1{fill:none;}
</style>
<defs>
</defs>
<path class="st0" d="M20.5,2.1H9.7c-4.2,0-7.5,3.4-7.5,7.5v10.8c0,4.2,3.4,7.5,7.5,7.5h10.8c4.2,0,7.5-3.4,7.5-7.5V9.7
	C28,5.5,24.6,2.1,20.5,2.1z M25.7,20.4c0,2.9-2.3,5.2-5.2,5.2H9.7c-2.9,0-5.2-2.3-5.2-5.2V9.7c0-2.9,2.3-5.2,5.2-5.2h10.8
	c2.9,0,5.2,2.3,5.2,5.2V20.4z M15.1,8.4c-3.7,0-6.7,3-6.7,6.7c0,3.7,3,6.7,6.7,6.7c3.7,0,6.7-3,6.7-6.7C21.7,11.4,18.7,8.4,15.1,8.4
	z M15.1,19.4c-2.4,0-4.3-1.9-4.3-4.3c0-2.4,1.9-4.3,4.3-4.3c2.4,0,4.3,1.9,4.3,4.3C19.4,17.5,17.5,19.4,15.1,19.4z M22,6.6
	c-0.8,0-1.5,0.7-1.5,1.5s0.7,1.5,1.5,1.5c0.9,0,1.5-0.7,1.5-1.5S22.8,6.6,22,6.6z"/>
<rect class="st1" width="30.1" height="30.1"/>
</svg>