<svg version="1.1"
	 xmlns="http://www.w3.org/2000/svg" xmlns:xlink="http://www.w3.org/1999/xlink" xmlns:a="http://ns.adobe.com/AdobeSVGViewerExtensions/3.0/"
	 x="0px" y="0px" width="24.5px" height="24.5px" viewBox="0 0 24.5 24.5" style="enable-background:new 0 0 24.5 24.5;"
	 xml:space="preserve">
<style type="text/css">
	.st0{fill:#A2A2A2;}
	.st1{fill:none;}
</style>
<defs>
</defs>
<path class="st0" d="M19.7,19.3l-3.9-3.9c1-1.2,1.6-2.7,1.6-4.4c0-3.9-3.1-7-7-7s-7,3.1-7,7s3.1,7,7,7c1.6,0,3.2-0.6,4.3-1.5
	l3.9,3.9c0.1,0.1,0.3,0.2,0.5,0.2s0.4-0.1,0.5-0.2C20,20.1,20,19.6,19.7,19.3z M10.4,16.5c-3,0-5.5-2.5-5.5-5.5s2.5-5.5,5.5-5.5
	s5.5,2.5,5.5,5.5S13.4,16.5,10.4,16.5z"/>
<rect class="st1" width="24.5" height="24.5"/>
</svg>