<svg xmlns="http://www.w3.org/2000/svg" width="103.2" height="105.4"><style>.st0{fill:#fff}.st1{fill:none;stroke:#61b049;stroke-width:1.1384;stroke-miterlimit:10}.st2{fill:#61b049}</style><path class="st0" d="M67.6 100.4c-3.1-.5-6.2.3-8.7 2.1-4 2.9-9.5 3-13.6.2-2.5-1.7-5.7-2.5-8.7-1.9-4.9.9-9.8-1.5-12.3-5.8-1.5-2.7-4-4.7-7.1-5.5C12.5 88.2 9 84.1 8.7 79c-.2-3-1.7-6-3.9-8-3.8-3.3-5-8.6-3.1-13.2 1.2-2.9 1.1-6.1-.1-9-1.9-4.6-.8-9.9 2.9-13.3 2.3-2.1 3.6-5.1 3.8-8.1.2-5 3.6-9.2 8.3-10.7 3-.9 5.5-2.9 6.9-5.7 2.4-4.3 7.3-6.8 12.2-6 3.1.5 6.2-.3 8.7-2.1 4-2.9 9.5-3 13.6-.2 2.5 1.7 5.7 2.5 8.7 1.9 4.9-.9 9.8 1.5 12.3 5.8 1.5 2.7 4 4.7 7.1 5.5 4.8 1.4 8.3 5.5 8.5 10.6.2 3.1 1.7 6 4 8.1 3.8 3.3 5 8.6 3.1 13.2-1.2 2.9-1.1 6.1.1 9 1.9 4.6.8 9.9-2.9 13.3-2.4 2-3.7 4.9-3.9 7.9-.2 5-3.6 9.2-8.3 10.7-3 .9-5.5 2.9-6.9 5.7-2.5 4.5-7.3 6.8-12.2 6z"/><path class="st1" d="M67.6 100.4c-3.1-.5-6.2.3-8.7 2.1-4 2.9-9.5 3-13.6.2-2.5-1.7-5.7-2.5-8.7-1.9-4.9.9-9.8-1.5-12.3-5.8-1.5-2.7-4-4.7-7.1-5.5C12.5 88.2 9 84.1 8.7 79c-.2-3-1.7-6-3.9-8-3.8-3.3-5-8.6-3.1-13.2 1.2-2.9 1.1-6.1-.1-9-1.9-4.6-.8-9.9 2.9-13.3 2.3-2.1 3.6-5.1 3.8-8.1.2-5 3.6-9.2 8.3-10.7 3-.9 5.5-2.9 6.9-5.7 2.4-4.3 7.3-6.8 12.2-6 3.1.5 6.2-.3 8.7-2.1 4-2.9 9.5-3 13.6-.2 2.5 1.7 5.7 2.5 8.7 1.9 4.9-.9 9.8 1.5 12.3 5.8 1.5 2.7 4 4.7 7.1 5.5 4.8 1.4 8.3 5.5 8.5 10.6.2 3.1 1.7 6 4 8.1 3.8 3.3 5 8.6 3.1 13.2-1.2 2.9-1.1 6.1.1 9 1.9 4.6.8 9.9-2.9 13.3-2.4 2-3.7 4.9-3.9 7.9-.2 5-3.6 9.2-8.3 10.7-3 .9-5.5 2.9-6.9 5.7-2.5 4.5-7.3 6.8-12.2 6z"/><circle class="st0" cx="51.6" cy="52.7" r="44.3"/><circle class="st1" cx="51.6" cy="52.7" r="44.3"/><path class="st2" d="M83.4 68.7l-.4.8-1.6-.7c-.3-.7-.3-1.4.1-2.3.3-.7.8-1.2 1.5-1.5.7-.3 1.4-.2 2.1.1.7.3 1.2.8 1.5 1.5.3.7.2 1.4-.1 2.1-.3.7-.8 1.2-1.4 1.5l-.4-.7c.2-.1.4-.3.6-.4.1-.2.3-.4.4-.6.2-.5.2-1 .1-1.4-.2-.5-.5-.8-1-1.1-.5-.2-1-.3-1.5-.1-.5.2-.8.5-1 1-.2.5-.3.9-.2 1.3l1.3.5zM77.9 74.6c-.4 0-.7.1-1 .5-.3.3-.4.6-.3 1 .1.4.3.7.6 1l2.2 1.9-.6.7-2.2-2c-.6-.5-.9-1-.9-1.6 0-.6.2-1.1.6-1.6.4-.5.9-.8 1.5-.8s1.2.2 1.7.7l2.2 2-.5.6-2.2-1.9c-.4-.3-.7-.5-1.1-.5zM70.7 81.1l-.2-1.3.8-.5.8 5.7-.8.5-4.8-3.3.8-.5 1.1.7 2.3-1.3zM69.1 83l2 1.4-.3-2.4-1.7 1zM58.7 88.6c-.2-.8 0-1.5.7-1.9l-1.8-1.5 1.1-.3 1.7 1.4 1.1-.3-.4-1.7.9-.2 1.3 5.1-1.9.5c-.8.2-1.4.2-1.8 0-.4-.1-.7-.5-.9-1.1zm1-1c-.1.2-.2.5-.1.8.1.3.2.5.5.6.2.1.6.1 1-.1l1.1-.3-.5-1.8-1.1.3c-.5.1-.8.3-.9.5zM51.6 86.9l.6-1.2h1L50.6 91h-1l-2.1-5.4h1l.5 1.2 2.6.1zm-2.3.7l.9 2.2 1-2.1-1.9-.1zM37.2 88.2l-.8-.3 1.8-5 .9.3 1.5 4.6 1.3-3.6.8.3-1.8 5-.8-.3-1.5-4.8-1.4 3.8zM28.9 82.5l2.7-3.6.7.5-2.6 3.6 1.3 1-.5.7-3.3-2.4.5-.7 1.2.9zM20.2 74.6l.7-.5 1.7 2.2 1.1-.9-1.6-2 .6-.5 1.6 2 1.1-.9-1.8-2.3.7-.5 2.3 3-4.2 3.2-2.2-2.8zM15.4 65.2l.8-.3 1 2.6 1.3-.5-.9-2.4.7-.3.9 2.4 1.3-.5-1.1-2.7.8-.3 1.4 3.5-4.9 2-1.3-3.5z"/><g><circle class="st0" cx="51.6" cy="52.7" r="23.7"/><circle class="st1" cx="51.6" cy="52.7" r="23.7"/></g><g><path class="st2" d="M19.9 43.6l-.3.8-5-1.8.5-1.3 3.7-.4-2.6-2.6.5-1.3 5 1.8-.3.8-3.9-1.4 2.8 3-.2.5-4.1.5 3.9 1.4zM26.5 30.3c.1.7-.1 1.4-.6 2-.5.6-1.1 1-1.8 1.1-.7.1-1.4-.1-2-.6-.6-.5-1-1.1-1-1.8-.1-.7.1-1.4.6-2 .5-.6 1.1-1 1.8-1.1.7-.1 1.4.1 2 .6s.9 1 1 1.8zm-3-1.6c-.5.1-.9.3-1.3.7-.3.4-.5.9-.4 1.4.1.5.3.9.7 1.3.4.3.9.5 1.4.4.5-.1.9-.3 1.3-.7.3-.4.5-.9.4-1.4-.1-.5-.3-.9-.7-1.3-.5-.3-.9-.4-1.4-.4zM31.6 20.1l.7-.5 2.9 4.4-.8.5-4.6-1.5 2.2 3.2-.7.5-2.9-4.4.7-.5 4.8 1.6-2.3-3.3zM42.1 15.6l.2.8-2.7.8.4 1.3 2.4-.8.2.8-2.4.7.4 1.4 2.8-.9.2.8-3.6 1.1-1.6-5 3.7-1zM50.9 19.8H50l-.1-2.1-2.1-3.1h1l1.5 2.4 1.4-2.5h1l-1.8 3.3v2zM65.4 22.8l-2.1-.9 2.2-4.8 1.9.8c.3.1.6.3.8.5.2.2.3.4.4.6.1.3.1.7 0 1-.2.4-.4.6-.7.7h-.2-.2c.3.2.4.4.5.7.1.3.1.6-.1.9-.2.3-.4.6-.7.7-.6.1-1.1.1-1.8-.2zm-1-1.3l1.3.6c.3.1.5.2.7.2.2 0 .4-.2.5-.4.2-.4-.1-.8-.7-1.1l-1.2-.7-.6 1.4zm1-2.1l1 .5c.6.3 1 .2 1.2-.2.1-.2.1-.4 0-.6-.1-.2-.3-.3-.6-.4l-1-.5-.6 1.2zM72.7 25.8l-1.2.6-.7-.6 5.2-2.5.7.6-1.7 5.5-.7-.6.4-1.3-2-1.7zm2.2.8l.7-2.3-2.1 1 1.4 1.3zM80 34.5c.2.3.4.5.6.6.2.1.5.2.8.3l-.2.8c-.8-.1-1.5-.5-1.9-1.2-.4-.7-.6-1.4-.4-2.1.1-.7.5-1.3 1.2-1.7s1.4-.6 2.1-.4c.7.2 1.3.6 1.8 1.3.4.7.6 1.4.4 2.2l-.8-.1c.1-.3.1-.6 0-.9 0-.2-.1-.5-.3-.7-.3-.4-.7-.7-1.2-.8-.5-.1-1 0-1.4.3s-.7.7-.8 1.2c-.2.3-.1.8.1 1.2zM87.6 39.7l.3.9-2.5.8 3.2 1.6.3 1.1-2.8-1.4-2.2 2.9-.3-1 1.7-2.4-1-.5-1.4.4-.3-.9 5-1.5z"/></g><g><path class="st2" d="M45.8 42.2c-.8.5-1.4 1.3-2 2.4-.6 1.1-1 2.5-1.2 4.3.3-.5.8-.9 1.3-1.2.6-.3 1.2-.4 1.8-.4.9 0 1.6.2 2.4.6.7.4 1.3 1 1.7 1.8.4.8.6 1.7.6 2.7 0 1.2-.3 2.2-.8 3.1s-1.3 1.5-2.2 2c-.9.4-1.9.7-3 .7-1.2 0-2.2-.3-3-.8-.7-.6-1.4-1.4-1.8-2.4-.5-1-.7-2.2-.7-3.7 0-2.2.5-4.1 1.5-5.6s2.2-2.7 3.7-3.6c1.5-.8 2.9-1.4 4.4-1.6l.1.5c-1.1.3-2 .7-2.8 1.2zm0 14.9c.3-.3.6-.9.8-1.6.2-.7.3-1.7.3-2.8 0-1.6-.2-2.8-.6-3.6s-.9-1.1-1.5-1.1c-.4 0-.8.1-1.3.4-.4.3-.8.7-1 1.3 0 .5-.1 1.1-.1 1.7 0 1.5.1 2.7.3 3.6.2.9.5 1.6.8 2s.7.6 1.1.6.9-.2 1.2-.5zM62.4 45.9c1 .5 1.8 1.3 2.3 2.2.6 1 .8 2.1.8 3.3 0 1.3-.3 2.4-.9 3.4-.6 1-1.4 1.8-2.4 2.4-1 .6-2.2.9-3.5.9-1.2 0-2.4-.3-3.3-.8-1-.5-1.8-1.3-2.3-2.2-.6-1-.8-2.1-.8-3.3s.3-2.4.8-3.4c.6-1 1.4-1.8 2.4-2.4 1-.6 2.2-.9 3.5-.9 1.3 0 2.4.2 3.4.8zm-5.1.3c-.4.5-.8 1.2-1 2.1-.2.9-.4 2-.4 3.3 0 1.4.1 2.5.4 3.4.3.9.6 1.5 1.1 2 .5.4 1 .6 1.6.6.6 0 1.1-.2 1.5-.7s.8-1.2 1-2.2c.3-.9.4-2 .4-3.3 0-1.4-.1-2.5-.4-3.4-.3-.9-.6-1.5-1.1-2-.5-.4-1-.6-1.6-.6-.6.1-1.1.3-1.5.8z"/></g><circle class="st2" cx="15.8" cy="52.7" r="1.8"/><circle class="st2" cx="86.3" cy="52.7" r="1.8"/><g><path class="st2" d="M47.9 62.8c.4.4.6.9.6 1.5s-.2 1.2-.6 1.6c-.4.4-1 .6-1.8.6h-1.4v-4.2h1.4c.8 0 1.4.2 1.8.5zm-.2 1.6c0-1-.6-1.4-1.7-1.4h-.7v2.9h.8c.5 0 .9-.1 1.2-.4.3-.3.4-.7.4-1.1zM51.2 65.5l-.4 1H50l1.9-4.2h.8l1.9 4.2h-.8l-.4-1h-2.2zm1.8-.6l-.8-1.7-.8 1.7H53zM57.6 66.5h-.7v-1.7l-1.6-2.5h.8l1.1 1.9 1.1-1.9h.8l-1.6 2.5v1.7z"/></g></svg>